<?xml version="1.0" encoding="UTF-8"?>
<!DOCTYPE svg PUBLIC "-//W3C//DTD SVG 1.1//EN" "http://www.w3.org/Graphics/SVG/1.1/DTD/svg11.dtd">
<svg xmlns="http://www.w3.org/2000/svg" version="1.1" width="344px" height="273px" style="shape-rendering:geometricPrecision; text-rendering:geometricPrecision; image-rendering:optimizeQuality; fill-rule:evenodd; clip-rule:evenodd" xmlns:xlink="http://www.w3.org/1999/xlink">
<g><path style="opacity:0.974" fill="#000000" d="M 179.5,272.5 C 171.5,272.5 163.5,272.5 155.5,272.5C 154.024,261.811 154.19,251.144 156,240.5C 195.277,203.224 233.943,165.224 272,126.5C 278.517,118.971 283.85,110.638 288,101.5C 297.642,72.2882 288.142,52.4549 259.5,42C 257.951,40.786 256.785,39.286 256,37.5C 255.333,27.8333 255.333,18.1667 256,8.5C 257.529,4.96923 260.196,2.96923 264,2.5C 289.208,5.76657 309.875,17.0999 326,36.5C 343.279,64.3377 343.945,92.6711 328,121.5C 315.37,139.808 300.87,156.641 284.5,172C 248.998,205.002 213.998,238.502 179.5,272.5 Z"/></g>
<g><path style="opacity:0.966" fill="#000000" d="M 224.5,3.5 C 228.182,3.3347 231.848,3.50137 235.5,4C 237.049,5.21398 238.215,6.71398 239,8.5C 239.95,18.9325 239.617,29.2659 238,39.5C 237.167,40.3333 236.333,41.1667 235.5,42C 214.004,47.8283 201.171,61.6617 197,83.5C 196.535,84.9308 195.701,86.0975 194.5,87C 188.077,88.1051 181.577,88.6051 175,88.5C 168.423,88.6051 161.923,88.1051 155.5,87C 153.129,85.2568 151.795,82.9234 151.5,80C 155.396,49.7777 170.729,27.4443 197.5,13C 206.297,8.90315 215.297,5.73648 224.5,3.5 Z"/></g>
<g><path style="opacity:0.983" fill="#000000" d="M 117.5,272.5 C 101.5,272.5 85.5,272.5 69.5,272.5C 69.3333,184.833 69.5,97.166 70,9.5C 70.8333,8.66667 71.6667,7.83333 72.5,7C 86.5,6.33333 100.5,6.33333 114.5,7C 115.333,7.83333 116.167,8.66667 117,9.5C 117.5,97.166 117.667,184.833 117.5,272.5 Z"/></g>
<g><path style="opacity:0.966" fill="#000000" d="M -0.5,93.5 C -0.5,80.8333 -0.5,68.1667 -0.5,55.5C 15.5223,44.3151 31.689,33.3151 48,22.5C 49.982,22.9903 51.6487,23.9903 53,25.5C 53.6667,38.1667 53.6667,50.8333 53,63.5C 38.7625,74.0359 24.2625,84.2026 9.5,94C 5.97518,96.1277 2.64185,95.9611 -0.5,93.5 Z"/></g>
<g><path style="opacity:0.973" fill="#000000" d="M 343.5,241.5 C 343.5,251.167 343.5,260.833 343.5,270.5C 342.662,270.842 342.328,271.508 342.5,272.5C 298.833,272.5 255.167,272.5 211.5,272.5C 210.086,268.792 210.253,265.125 212,261.5C 220.833,253.333 229.667,245.167 238.5,237C 239.5,236.667 240.5,236.333 241.5,236C 273.167,235.333 304.833,235.333 336.5,236C 339.598,236.938 341.931,238.772 343.5,241.5 Z"/></g>
</svg>
