<?xml version="1.0" encoding="UTF-8"?>
<!DOCTYPE svg PUBLIC "-//W3C//DTD SVG 1.1//EN" "http://www.w3.org/Graphics/SVG/1.1/DTD/svg11.dtd">
<svg xmlns="http://www.w3.org/2000/svg" version="1.1" width="337px" height="278px" style="shape-rendering:geometricPrecision; text-rendering:geometricPrecision; image-rendering:optimizeQuality; fill-rule:evenodd; clip-rule:evenodd" xmlns:xlink="http://www.w3.org/1999/xlink">
<g><path style="opacity:0.886" fill="#000000" d="M 336.5,57.5 C 336.5,74.5 336.5,91.5 336.5,108.5C 328.424,126.303 317.591,142.303 304,156.5C 275.167,184.667 246.333,212.833 217.5,241C 213.789,241.825 210.122,241.659 206.5,240.5C 240.154,207.68 273.32,174.346 306,140.5C 318.202,127.431 326.202,112.098 330,94.5C 333.398,56.783 317.564,30.9497 282.5,17C 270.176,12.8352 257.509,10.6685 244.5,10.5C 244.336,7.8127 244.503,5.14603 245,2.5C 277.187,1.00199 303.853,12.3353 325,36.5C 329.384,43.2732 333.217,50.2732 336.5,57.5 Z"/></g>
<g><path style="opacity:0.95" fill="#000000" d="M 89.5,277.5 C 86.8333,277.5 84.1667,277.5 81.5,277.5C 81.5,188.167 81.5,98.8333 81.5,9.5C 84.1667,9.5 86.8333,9.5 89.5,9.5C 89.5,98.8333 89.5,188.167 89.5,277.5 Z"/></g>
<g><path style="opacity:0.9" fill="#000000" d="M 113.5,277.5 C 110.5,277.5 107.5,277.5 104.5,277.5C 104.5,188.167 104.5,98.8333 104.5,9.5C 107.5,9.5 110.5,9.5 113.5,9.5C 113.5,98.8333 113.5,188.167 113.5,277.5 Z"/></g>
<g><path style="opacity:0.868" fill="#000000" d="M 66.5,11.5 C 67.7773,12.6936 68.4439,14.3603 68.5,16.5C 68.712,19.0114 68.0454,21.1781 66.5,23C 45.0709,37.4641 23.9042,52.2974 3,67.5C 2.33333,63.8333 2.33333,60.1667 3,56.5C 24.1456,41.3552 45.3123,26.3552 66.5,11.5 Z"/></g>
<g><path style="opacity:0.887" fill="#000000" d="M 336.5,251.5 C 336.5,254.5 336.5,257.5 336.5,260.5C 280.167,260.5 223.833,260.5 167.5,260.5C 167.335,257.15 167.502,253.817 168,250.5C 208.026,211.474 247.693,172.14 287,132.5C 296.826,121.515 303.493,108.848 307,94.5C 309.88,60.4333 294.713,39.2667 261.5,31C 231.682,25.6019 207.182,34.4352 188,57.5C 180.789,67.6759 177.289,79.0093 177.5,91.5C 174.5,91.5 171.5,91.5 168.5,91.5C 171.889,51.9402 193.222,28.7735 232.5,22C 256.721,18.4703 278.387,24.1369 297.5,39C 314.587,56.1673 320.421,76.6673 315,100.5C 310.997,113.51 304.664,125.177 296,135.5C 258.191,174.975 219.358,213.475 179.5,251C 231.832,251.5 284.166,251.667 336.5,251.5 Z"/></g>
<g><path style="opacity:0.866" fill="#000000" d="M 66.5,33.5 C 67.7868,34.8714 68.4535,36.7047 68.5,39C 68.4644,41.0937 68.1311,43.0937 67.5,45C 45.913,59.7099 24.413,74.5433 3,89.5C 2.33333,85.8333 2.33333,82.1667 3,78.5C 24.4969,63.8466 45.6635,48.8466 66.5,33.5 Z"/></g>
<g><path style="opacity:0.869" fill="#000000" d="M 240.5,39.5 C 242.5,39.5 244.5,39.5 246.5,39.5C 246.5,42.5 246.5,45.5 246.5,48.5C 218.933,50.0748 203.266,64.4082 199.5,91.5C 196.813,91.6641 194.146,91.4974 191.5,91C 192.072,68.7152 202.738,53.0485 223.5,44C 229.175,41.9998 234.842,40.4998 240.5,39.5 Z"/></g>
<g><path style="opacity:0.934" fill="#000000" d="M 336.5,271.5 C 336.5,273.5 336.5,275.5 336.5,277.5C 280.167,277.5 223.833,277.5 167.5,277.5C 167.5,275.5 167.5,273.5 167.5,271.5C 223.833,271.5 280.167,271.5 336.5,271.5 Z"/></g>
</svg>
