<svg width="102" height="69" viewBox="0 0 102 69" fill="none" xmlns="http://www.w3.org/2000/svg">
<path d="M18.2344 69V16.4531H17.9062L0.984375 27.7969V13.0781L18.1875 1.35938H35.3438V69H18.2344ZM49.5 69V57.2812L73.4531 36.2344C77.5469 32.6094 80.25 29.7969 81.5625 27.7969C82.9062 25.7656 83.5781 23.6406 83.5781 21.4219V21.3281C83.5781 18.9219 82.7344 16.9531 81.0469 15.4219C79.3906 13.8906 77.2344 13.125 74.5781 13.125C71.5781 13.125 69.1562 14 67.3125 15.75C65.4688 17.4688 64.4688 19.7031 64.3125 22.4531L64.2656 22.9688H48.5156V22.5469C48.5156 15.9219 50.9375 10.5312 55.7812 6.375C60.6562 2.21875 66.9062 0.140625 74.5312 0.140625C82.2188 0.140625 88.4219 2.01562 93.1406 5.76562C97.8594 9.48438 100.219 14.3438 100.219 20.3438V20.4375C100.219 23.3125 99.6875 25.9531 98.625 28.3594C97.5625 30.7344 95.9844 33.0781 93.8906 35.3906C91.8281 37.6719 88.8125 40.5312 84.8438 43.9688L71.625 55.2188V55.7812H101.062V69H49.5Z" fill="black"/>
</svg>
