<?xml version="1.0" encoding="UTF-8"?>
<!DOCTYPE svg PUBLIC "-//W3C//DTD SVG 1.1//EN" "http://www.w3.org/Graphics/SVG/1.1/DTD/svg11.dtd">
<svg xmlns="http://www.w3.org/2000/svg" version="1.1" width="380px" height="280px" style="shape-rendering:geometricPrecision; text-rendering:geometricPrecision; image-rendering:optimizeQuality; fill-rule:evenodd; clip-rule:evenodd" xmlns:xlink="http://www.w3.org/1999/xlink">
<g><path style="opacity:0.979" fill="#000000" d="M 266.5,-0.5 C 277.167,-0.5 287.833,-0.5 298.5,-0.5C 321.355,2.34412 340.855,12.0108 357,28.5C 377.977,57.0915 379.977,87.0915 363,118.5C 358.065,126.701 352.399,134.368 346,141.5C 315.5,173.333 284.333,204.5 252.5,235C 290.167,235.333 327.833,235.667 365.5,236C 371.894,237.347 376.56,240.847 379.5,246.5C 379.5,252.833 379.5,259.167 379.5,265.5C 376.553,269.942 372.553,273.108 367.5,275C 312.167,275.667 256.833,275.667 201.5,275C 188.6,269.684 184.1,260.184 188,246.5C 189.413,243.339 191.08,240.339 193,237.5C 227.028,203.139 261.361,169.139 296,135.5C 302.374,128.794 308.374,121.794 314,114.5C 327.7,96.6587 329.7,77.6587 320,57.5C 311.97,46.5639 301.136,40.3972 287.5,39C 265.642,37.0515 248.809,45.2182 237,63.5C 234.185,69.6228 231.185,75.6228 228,81.5C 220.543,89.9905 211.377,92.4905 200.5,89C 191.632,85.2645 187.632,78.5978 188.5,69C 190.417,50.4995 198.417,35.1662 212.5,23C 228.387,10.208 246.387,2.37471 266.5,-0.5 Z"/></g>
<g><path style="opacity:0.984" fill="#000000" d="M 107.5,279.5 C 103.167,279.5 98.8333,279.5 94.5,279.5C 85.5167,276.682 79.6834,270.682 77,261.5C 76.6667,191.833 76.3333,122.167 76,52.5C 60.8333,63 45.6667,73.5 30.5,84C 18.5059,90.4402 9.00586,87.9402 2,76.5C -1.16415,66.3216 1.33585,57.8216 9.5,51C 31.1667,36 52.8333,21 74.5,6C 88.2014,-1.21806 101.868,-1.21806 115.5,6C 120.003,9.84067 122.837,14.674 124,20.5C 124.667,101.167 124.667,181.833 124,262.5C 121.316,271.016 115.816,276.683 107.5,279.5 Z"/></g>
</svg>
