<?xml version="1.0" encoding="UTF-8"?>
<!DOCTYPE svg PUBLIC "-//W3C//DTD SVG 1.1//EN" "http://www.w3.org/Graphics/SVG/1.1/DTD/svg11.dtd">
<svg xmlns="http://www.w3.org/2000/svg" version="1.1" width="352px" height="276px" style="shape-rendering:geometricPrecision; text-rendering:geometricPrecision; image-rendering:optimizeQuality; fill-rule:evenodd; clip-rule:evenodd" xmlns:xlink="http://www.w3.org/1999/xlink">
<g><path style="opacity:0.981" fill="#000000" d="M 259.5,-0.5 C 264.167,-0.5 268.833,-0.5 273.5,-0.5C 329.336,6.16203 354.502,37.4954 349,93.5C 343.411,117.092 331.244,136.592 312.5,152C 295.588,165.569 277.588,177.569 258.5,188C 239.167,197.667 219.833,207.333 200.5,217C 250.828,216.679 301.161,216.513 351.5,216.5C 351.5,236.167 351.5,255.833 351.5,275.5C 291.5,275.5 231.5,275.5 171.5,275.5C 171.333,258.83 171.5,242.163 172,225.5C 189.699,209.077 207.866,193.244 226.5,178C 243.762,163.087 257.595,145.587 268,125.5C 275.947,106.127 275.28,87.1266 266,68.5C 256.084,56.1788 243.084,50.1788 227,50.5C 200.93,51.1901 182.264,63.1901 171,86.5C 171.183,50.6529 187.35,24.8195 219.5,9C 232.468,3.7112 245.801,0.544538 259.5,-0.5 Z"/></g>
<g><path style="opacity:0.99" fill="#000000" d="M 151.5,275.5 C 102.167,275.5 52.8333,275.5 3.5,275.5C 3.5,271.833 3.5,268.167 3.5,264.5C 12.9824,263.704 21.9824,261.204 30.5,257C 34.9279,253.908 37.7612,249.741 39,244.5C 40.1489,211.705 40.6489,178.871 40.5,146C 40.3333,114.833 40.1667,83.6667 40,52.5C 27.6667,56.5 15.3333,60.5 3,64.5C 2.33333,60.8333 2.33333,57.1667 3,53.5C 26.4964,39.1673 48.663,23.0006 69.5,5C 84.4963,4.50008 99.4963,4.33342 114.5,4.5C 114.333,82.834 114.5,161.167 115,239.5C 117.117,252.284 124.617,259.784 137.5,262C 142.16,262.943 146.827,263.777 151.5,264.5C 151.5,268.167 151.5,271.833 151.5,275.5 Z"/></g>
</svg>
